Metropolis-Light Italic.ufo
<glyph name="exclam" format="1">
  <advance width="257"/>
  <unicode hex="0021"/>
  <outline>
    <contour>
      <point x="134" y="193" type="line"/>
      <point x="236" y="687" type="line"/>
      <point x="200" y="687" type="line"/>
      <point x="98" y="193" type="line"/>
    </contour>
    <component base="period" xOffset="24"/>
  </outline>
</glyph>
<glyph name="percent" format="1">
  <advance width="770"/>
  <unicode hex="0025"/>
  <outline>
    <contour>
      <point x="121" y="0" type="line"/>
      <point x="734" y="687" type="line"/>
      <point x="685" y="687" type="line"/>
      <point x="72" y="0" type="line"/>
    </contour>
    <contour>
      <point x="626" y="-10"/>
      <point x="706" y="97"/>
      <point x="706" y="206" type="curve" smooth="yes"/>
      <point x="706" y="283"/>
      <point x="661" y="334"/>
      <point x="588" y="334" type="curve" smooth="yes"/>
      <point x="482" y="334"/>
      <point x="405" y="228"/>
      <point x="405" y="117" type="curve" smooth="yes"/>
      <point x="405" y="40"/>
      <point x="449" y="-10"/>
      <point x="521" y="-10" type="curve" smooth="yes"/>
    </contour>
    <contour>
      <point x="472" y="26"/>
      <point x="441" y="64"/>
      <point x="441" y="121" type="curve" smooth="yes"/>
      <point x="441" y="209"/>
      <point x="502" y="298"/>
      <point x="585" y="298" type="curve" smooth="yes"/>
      <point x="638" y="298"/>
      <point x="670" y="260"/>
      <point x="670" y="202" type="curve" smooth="yes"/>
      <point x="670" y="119"/>
      <point x="609" y="26"/>
      <point x="524" y="26" type="curve" smooth="yes"/>
    </contour>
    <contour>
      <point x="320" y="349"/>
      <point x="399" y="458"/>
      <point x="399" y="565" type="curve" smooth="yes"/>
      <point x="399" y="635"/>
      <point x="359" y="693"/>
      <point x="281" y="693" type="curve" smooth="yes"/>
      <point x="176" y="693"/>
      <point x="97" y="585"/>
      <point x="97" y="476" type="curve" smooth="yes"/>
      <point x="97" y="399"/>
      <point x="142" y="349"/>
      <point x="214" y="349" type="curve" smooth="yes"/>
    </contour>
    <contour>
      <point x="165" y="385"/>
      <point x="133" y="423"/>
      <point x="133" y="480" type="curve" smooth="yes"/>
      <point x="133" y="563"/>
      <point x="194" y="657"/>
      <point x="278" y="657" type="curve" smooth="yes"/>
      <point x="334" y="657"/>
      <point x="362" y="615"/>
      <point x="362" y="560" type="curve" smooth="yes"/>
      <point x="362" y="477"/>
      <point x="301" y="385"/>
      <point x="217" y="385" type="curve" smooth="yes"/>
    </contour>
  </outline>
</glyph>
<glyph name="asterisk" format="1">
  <advance width="360"/>
  <unicode hex="002A"/>
  <outline>
    <contour>
      <point x="220" y="404"/>
      <point x="230" y="412"/>
      <point x="232" y="421" type="curve" smooth="yes"/>
      <point x="238" y="452"/>
      <point x="238" y="489"/>
      <point x="242" y="529" type="curve"/>
      <point x="271" y="505"/>
      <point x="294" y="480"/>
      <point x="316" y="464" type="curve" smooth="yes"/>
      <point x="323" y="459"/>
      <point x="336" y="463"/>
      <point x="341" y="471" type="curve" smooth="yes"/>
      <point x="349" y="480"/>
      <point x="348" y="491"/>
      <point x="340" y="495" type="curve" smooth="yes"/>
      <point x="316" y="509"/>
      <point x="284" y="522"/>
      <point x="251" y="539" type="curve"/>
      <point x="291" y="556"/>
      <point x="330" y="567"/>
      <point x="359" y="583" type="curve" smooth="yes"/>
      <point x="368" y="588"/>
      <point x="374" y="598"/>
      <point x="370" y="607" type="curve" smooth="yes"/>
      <point x="367" y="615"/>
      <point x="356" y="618"/>
      <point x="347" y="614" type="curve" smooth="yes"/>
      <point x="317" y="600"/>
      <point x="285" y="573"/>
      <point x="247" y="549" type="curve"/>
      <point x="259" y="589"/>
      <point x="275" y="626"/>
      <point x="281" y="657" type="curve" smooth="yes"/>
      <point x="283" y="666"/>
      <point x="277" y="674"/>
      <point x="267" y="674" type="curve" smooth="yes"/>
      <point x="257" y="674"/>
      <point x="247" y="666"/>
      <point x="245" y="657" type="curve" smooth="yes"/>
      <point x="239" y="626"/>
      <point x="239" y="589"/>
      <point x="235" y="549" type="curve"/>
      <point x="207" y="573"/>
      <point x="184" y="598"/>
      <point x="161" y="614" type="curve" smooth="yes"/>
      <point x="154" y="619"/>
      <point x="142" y="615"/>
      <point x="136" y="607" type="curve" smooth="yes"/>
      <point x="129" y="598"/>
      <point x="131" y="587"/>
      <point x="137" y="583" type="curve" smooth="yes"/>
      <point x="162" y="569"/>
      <point x="193" y="556"/>
      <point x="227" y="539" type="curve"/>
      <point x="186" y="522"/>
      <point x="148" y="511"/>
      <point x="118" y="495" type="curve" smooth="yes"/>
      <point x="109" y="490"/>
      <point x="104" y="480"/>
      <point x="107" y="471" type="curve" smooth="yes"/>
      <point x="111" y="463"/>
      <point x="122" y="460"/>
      <point x="130" y="464" type="curve" smooth="yes"/>
      <point x="161" y="478"/>
      <point x="193" y="505"/>
      <point x="230" y="529" type="curve"/>
      <point x="218" y="489"/>
      <point x="202" y="452"/>
      <point x="196" y="421" type="curve" smooth="yes"/>
      <point x="194" y="412"/>
      <point x="200" y="404"/>
      <point x="210" y="404" type="curve" smooth="yes"/>
    </contour>
  </outline>
</glyph>
<glyph name="zero" format="1">
  <advance width="646"/>
  <unicode hex="0030"/>
  <outline>
    <contour>
      <point x="472" y="-12"/>
      <point x="616" y="233"/>
      <point x="616" y="450" type="curve" smooth="yes"/>
      <point x="616" y="600"/>
      <point x="539" y="699"/>
      <point x="412" y="699" type="curve" smooth="yes"/>
      <point x="209" y="699"/>
      <point x="66" y="455"/>
      <point x="66" y="237" type="curve" smooth="yes"/>
      <point x="66" y="86"/>
      <point x="142" y="-12"/>
      <point x="270" y="-12" type="curve" smooth="yes"/>
    </contour>
    <contour>
      <point x="164" y="24"/>
      <point x="101" y="110"/>
      <point x="101" y="242" type="curve" smooth="yes"/>
      <point x="101" y="433"/>
      <point x="228" y="663"/>
      <point x="410" y="663" type="curve" smooth="yes"/>
      <point x="518" y="663"/>
      <point x="581" y="577"/>
      <point x="581" y="446" type="curve" smooth="yes"/>
      <point x="581" y="255"/>
      <point x="454" y="24"/>
      <point x="272" y="24" type="curve" smooth="yes"/>
    </contour>
  </outline>
</glyph>
<glyph name="six" format="1">
  <advance width="580"/>
  <unicode hex="0036"/>
  <outline>
    <contour>
      <point x="382" y="-12"/>
      <point x="515" y="121"/>
      <point x="515" y="255" type="curve" smooth="yes"/>
      <point x="515" y="353"/>
      <point x="442" y="429"/>
      <point x="341" y="429" type="curve" smooth="yes"/>
      <point x="223" y="429"/>
      <point x="109" y="352"/>
      <point x="89" y="259" type="curve"/>
      <point x="88" y="207" type="line"/>
      <point x="112" y="307"/>
      <point x="225" y="393"/>
      <point x="332" y="393" type="curve" smooth="yes"/>
      <point x="418" y="393"/>
      <point x="479" y="330"/>
      <point x="479" y="249" type="curve" smooth="yes"/>
      <point x="479" y="140"/>
      <point x="367" y="24"/>
      <point x="248" y="24" type="curve" smooth="yes"/>
      <point x="149" y="24"/>
      <point x="97" y="93"/>
      <point x="97" y="213" type="curve" smooth="yes"/>
      <point x="97" y="416"/>
      <point x="223" y="663"/>
      <point x="401" y="663" type="curve" smooth="yes"/>
      <point x="463" y="663"/>
      <point x="523" y="636"/>
      <point x="561" y="589" type="curve"/>
      <point x="585" y="616" type="line"/>
      <point x="541" y="668"/>
      <point x="475" y="699"/>
      <point x="405" y="699" type="curve" smooth="yes"/>
      <point x="205" y="699"/>
      <point x="62" y="439"/>
      <point x="62" y="209" type="curve" smooth="yes"/>
      <point x="62" y="68"/>
      <point x="126" y="-12"/>
      <point x="246" y="-12" type="curve" smooth="yes"/>
    </contour>
  </outline>
</glyph>
<glyph name="colon" format="1">
  <advance width="205"/>
  <unicode hex="003A"/>
  <outline>
    <contour>
      <point x="161" y="437"/>
      <point x="177" y="454"/>
      <point x="177" y="472" type="curve" smooth="yes"/>
      <point x="177" y="486"/>
      <point x="166" y="497"/>
      <point x="151" y="497" type="curve" smooth="yes"/>
      <point x="131" y="497"/>
      <point x="117" y="480"/>
      <point x="117" y="465" type="curve" smooth="yes"/>
      <point x="117" y="449"/>
      <point x="127" y="437"/>
      <point x="144" y="437" type="curve" smooth="yes"/>
    </contour>
    <contour>
      <point x="67" y="-12"/>
      <point x="83" y="4"/>
      <point x="83" y="22" type="curve" smooth="yes"/>
      <point x="83" y="36"/>
      <point x="73" y="48"/>
      <point x="57" y="48" type="curve" smooth="yes"/>
      <point x="38" y="48"/>
      <point x="23" y="29"/>
      <point x="23" y="14" type="curve" smooth="yes"/>
      <point x="23" y="-1"/>
      <point x="34" y="-12"/>
      <point x="51" y="-12" type="curve" smooth="yes"/>
    </contour>
  </outline>
</glyph>
<glyph name="equal" format="1">
  <advance width="594"/>
  <unicode hex="003D"/>
  <outline>
    <contour>
      <point x="561" y="426" type="line"/>
      <point x="569" y="462" type="line"/>
      <point x="110" y="462" type="line"/>
      <point x="102" y="426" type="line"/>
    </contour>
    <contour>
      <point x="515" y="206" type="line"/>
      <point x="523" y="242" type="line"/>
      <point x="64" y="242" type="line"/>
      <point x="56" y="206" type="line"/>
    </contour>
  </outline>
</glyph>
<glyph name="question" format="1">
  <advance width="488"/>
  <unicode hex="003F"/>
  <outline>
    <contour>
      <point x="232" y="193" type="line"/>
      <point x="259" y="326" type="line"/>
      <point x="383" y="347"/>
      <point x="500" y="432"/>
      <point x="500" y="547" type="curve" smooth="yes"/>
      <point x="500" y="632"/>
      <point x="434" y="699"/>
      <point x="342" y="699" type="curve" smooth="yes"/>
      <point x="254" y="699"/>
      <point x="173" y="662"/>
      <point x="95" y="585" type="curve"/>
      <point x="118" y="558" type="line"/>
      <point x="182" y="628"/>
      <point x="255" y="663"/>
      <point x="338" y="663" type="curve" smooth="yes"/>
      <point x="412" y="663"/>
      <point x="463" y="611"/>
      <point x="463" y="543" type="curve" smooth="yes"/>
      <point x="463" y="447"/>
      <point x="358" y="366"/>
      <point x="226" y="356" type="curve"/>
      <point x="193" y="193" type="line"/>
    </contour>
    <component base="period" xOffset="124"/>
  </outline>
</glyph>
<glyph name="at" format="1">
  <advance width="882"/>
  <unicode hex="0040"/>
  <outline>
    <contour>
      <point x="439" y="-116"/>
      <point x="511" y="-96"/>
      <point x="599" y="-47" type="curve"/>
      <point x="586" y="-20" type="line"/>
      <point x="504" y="-64"/>
      <point x="440" y="-81"/>
      <point x="358" y="-81" type="curve" smooth="yes"/>
      <point x="193" y="-81"/>
      <point x="76" y="39"/>
      <point x="76" y="193" type="curve" smooth="yes"/>
      <point x="76" y="417"/>
      <point x="307" y="639"/>
      <point x="539" y="639" type="curve" smooth="yes"/>
      <point x="703" y="639"/>
      <point x="820" y="525"/>
      <point x="820" y="378" type="curve" smooth="yes"/>
      <point x="820" y="269"/>
      <point x="743" y="114"/>
      <point x="642" y="114" type="curve" smooth="yes"/>
      <point x="603" y="114"/>
      <point x="575" y="136"/>
      <point x="575" y="173" type="curve" smooth="yes"/>
      <point x="575" y="210"/>
      <point x="641" y="360"/>
      <point x="694" y="481" type="curve"/>
      <point x="655" y="486" type="line"/>
      <point x="627" y="420" type="line"/>
      <point x="614" y="463"/>
      <point x="572" y="501"/>
      <point x="501" y="501" type="curve" smooth="yes"/>
      <point x="362" y="501"/>
      <point x="226" y="345"/>
      <point x="226" y="206" type="curve" smooth="yes"/>
      <point x="226" y="129"/>
      <point x="272" y="78"/>
      <point x="348" y="78" type="curve" smooth="yes"/>
      <point x="417" y="78"/>
      <point x="487" y="116"/>
      <point x="534" y="164" type="curve"/>
      <point x="533" y="110"/>
      <point x="568" y="78"/>
      <point x="625" y="78" type="curve" smooth="yes"/>
      <point x="760" y="78"/>
      <point x="857" y="243"/>
      <point x="857" y="385" type="curve" smooth="yes"/>
      <point x="857" y="548"/>
      <point x="729" y="675"/>
      <point x="549" y="675" type="curve" smooth="yes"/>
      <point x="296" y="675"/>
      <point x="37" y="436"/>
      <point x="37" y="187" type="curve" smooth="yes"/>
      <point x="37" y="16"/>
      <point x="166" y="-116"/>
      <point x="348" y="-116" type="curve" smooth="yes"/>
    </contour>
    <contour>
      <point x="302" y="114"/>
      <point x="264" y="155"/>
      <point x="264" y="217" type="curve" smooth="yes"/>
      <point x="264" y="333"/>
      <point x="377" y="465"/>
      <point x="497" y="465" type="curve" smooth="yes"/>
      <point x="559" y="465"/>
      <point x="593" y="428"/>
      <point x="593" y="371" type="curve" smooth="yes"/>
      <point x="593" y="259"/>
      <point x="480" y="114"/>
      <point x="364" y="114" type="curve" smooth="yes"/>
    </contour>
  </outline>
</glyph>
<glyph name="K" format="1">
  <advance width="612"/>
  <unicode hex="004B"/>
  <outline>
    <contour>
      <point x="74" y="0" type="line"/>
      <point x="118" y="205" type="line"/>
      <point x="280" y="349" type="line"/>
      <point x="493" y="0" type="line"/>
      <point x="538" y="0" type="line"/>
      <point x="310" y="376" type="line"/>
      <point x="660" y="687" type="line"/>
      <point x="611" y="687" type="line"/>
      <point x="127" y="257" type="line"/>
      <point x="217" y="687" type="line"/>
      <point x="181" y="687" type="line"/>
      <point x="38" y="0" type="line"/>
    </contour>
    <contour>
      <point x="274" y="0" type="move" name="bottom"/>
    </contour>
  </outline>
</glyph>
<glyph name="S" format="1">
  <advance width="603"/>
  <unicode hex="0053"/>
  <outline>
    <contour>
      <point x="410" y="-11"/>
      <point x="535" y="89"/>
      <point x="535" y="208" type="curve" smooth="yes"/>
      <point x="535" y="294"/>
      <point x="475" y="327"/>
      <point x="341" y="365" type="curve" smooth="yes"/>
      <point x="238" y="394"/>
      <point x="164" y="415"/>
      <point x="164" y="490" type="curve" smooth="yes"/>
      <point x="164" y="584"/>
      <point x="266" y="664"/>
      <point x="388" y="664" type="curve" smooth="yes"/>
      <point x="465" y="664"/>
      <point x="537" y="629"/>
      <point x="581" y="575" type="curve"/>
      <point x="607" y="601" type="line"/>
      <point x="552" y="663"/>
      <point x="473" y="700"/>
      <point x="390" y="700" type="curve" smooth="yes"/>
      <point x="248" y="700"/>
      <point x="128" y="600"/>
      <point x="128" y="481" type="curve" smooth="yes"/>
      <point x="128" y="397"/>
      <point x="192" y="369"/>
      <point x="323" y="332" type="curve" smooth="yes"/>
      <point x="421" y="305"/>
      <point x="498" y="282"/>
      <point x="498" y="200" type="curve" smooth="yes"/>
      <point x="498" y="105"/>
      <point x="391" y="25"/>
      <point x="263" y="25" type="curve" smooth="yes"/>
      <point x="180" y="25"/>
      <point x="90" y="59"/>
      <point x="38" y="125" type="curve"/>
      <point x="13" y="99" type="line"/>
      <point x="72" y="26"/>
      <point x="169" y="-11"/>
      <point x="261" y="-11" type="curve" smooth="yes"/>
    </contour>
    <contour>
      <point x="388" y="687" type="move" name="top"/>
    </contour>
    <contour>
      <point x="257" y="0" type="move" name="bottom"/>
    </contour>
  </outline>
</glyph>
<glyph name="bracketright" format="1">
  <advance width="352"/>
  <unicode hex="005D"/>
  <outline>
    <contour>
      <point x="193" y="-115" type="line"/>
      <point x="369" y="734" type="line"/>
      <point x="148" y="734" type="line"/>
      <point x="141" y="698" type="line"/>
      <point x="326" y="698" type="line"/>
      <point x="164" y="-79" type="line"/>
      <point x="-21" y="-79" type="line"/>
      <point x="-28" y="-115" type="line"/>
    </contour>
  </outline>
</glyph>
<glyph name="underscore" format="1">
  <advance width="593"/>
  <unicode hex="005F"/>
  <outline>
    <contour>
      <point x="514" y="-127" type="line"/>
      <point x="522" y="-91" type="line"/>
      <point x="-74" y="-91" type="line"/>
      <point x="-82" y="-127" type="line"/>
    </contour>
  </outline>
</glyph>
<glyph name="a" format="1">
  <advance width="611"/>
  <unicode hex="0061"/>
  <outline>
    <contour>
      <point x="474" y="0" type="line"/>
      <point x="581" y="517" type="line"/>
      <point x="545" y="517" type="line"/>
      <point x="438" y="0" type="line"/>
    </contour>
    <component base="lowercase_loop_reverse" xOffset="-35"/>
    <contour>
      <point x="352" y="517" type="move" name="top"/>
    </contour>
    <contour>
      <point x="474" y="0" type="move" name="bottom"/>
    </contour>
  </outline>
</glyph>
<glyph name="e" format="1">
  <advance width="567"/>
  <unicode hex="0065"/>
  <outline>
    <contour>
      <point x="329" y="-12"/>
      <point x="427" y="20"/>
      <point x="479" y="67" type="curve"/>
      <point x="458" y="96" type="line"/>
      <point x="406" y="49"/>
      <point x="328" y="24"/>
      <point x="253" y="24" type="curve" smooth="yes"/>
      <point x="151" y="24"/>
      <point x="79" y="105"/>
      <point x="79" y="209" type="curve" smooth="yes"/>
      <point x="79" y="350"/>
      <point x="207" y="493"/>
      <point x="353" y="493" type="curve" smooth="yes"/>
      <point x="444" y="493"/>
      <point x="508" y="448"/>
      <point x="508" y="385" type="curve" smooth="yes"/>
      <point x="508" y="318"/>
      <point x="434" y="278"/>
      <point x="308" y="278" type="curve"/>
      <point x="73" y="278" type="line"/>
      <point x="66" y="242" type="line"/>
      <point x="301" y="242" type="line"/>
      <point x="454" y="242"/>
      <point x="544" y="296"/>
      <point x="544" y="387" type="curve" smooth="yes"/>
      <point x="544" y="470"/>
      <point x="467" y="529"/>
      <point x="359" y="529" type="curve" smooth="yes"/>
      <point x="194" y="529"/>
      <point x="43" y="371"/>
      <point x="43" y="205" type="curve" smooth="yes"/>
      <point x="43" y="82"/>
      <point x="127" y="-12"/>
      <point x="248" y="-12" type="curve" smooth="yes"/>
    </contour>
    <contour>
      <point x="356" y="517" type="move" name="top"/>
    </contour>
    <contour>
      <point x="249" y="-12" type="move" name="bottom"/>
    </contour>
  </outline>
</glyph>
<glyph name="j" format="1">
  <advance width="225"/>
  <unicode hex="006A"/>
  <outline>
    <contour>
      <point x="209" y="631"/>
      <point x="226" y="647"/>
      <point x="226" y="665" type="curve" smooth="yes"/>
      <point x="226" y="680"/>
      <point x="215" y="691"/>
      <point x="199" y="691" type="curve" smooth="yes"/>
      <point x="181" y="691"/>
      <point x="166" y="673"/>
      <point x="166" y="656" type="curve" smooth="yes"/>
      <point x="166" y="641"/>
      <point x="177" y="631"/>
      <point x="193" y="631" type="curve" smooth="yes"/>
    </contour>
    <component base="jdotless"/>
  </outline>
</glyph>
<glyph name="k" format="1">
  <advance width="502"/>
  <unicode hex="006B"/>
  <outline>
    <contour>
      <point x="421" y="0" type="line"/>
      <point x="260" y="280" type="line"/>
      <point x="542" y="517" type="line"/>
      <point x="490" y="517" type="line"/>
      <point x="87" y="177" type="line"/>
      <point x="77" y="125" type="line"/>
      <point x="231" y="255" type="line"/>
      <point x="376" y="0" type="line"/>
    </contour>
    <component base="ascender" xOffset="-8"/>
    <contour>
      <point x="214" y="0" type="move" name="bottom"/>
    </contour>
  </outline>
</glyph>
<glyph name="v" format="1">
  <advance width="550"/>
  <unicode hex="0076"/>
  <outline>
    <contour>
      <point x="232" y="0" type="line"/>
      <point x="577" y="517" type="line"/>
      <point x="536" y="517" type="line"/>
      <point x="232" y="61" type="line"/>
      <point x="118" y="517" type="line"/>
      <point x="81" y="517" type="line"/>
      <point x="210" y="0" type="line"/>
    </contour>
  </outline>
</glyph>
<glyph name="braceleft" format="1">
  <advance width="395"/>
  <unicode hex="007B"/>
  <outline>
    <contour>
      <point x="265" y="-131" type="line"/>
      <point x="174" y="-121"/>
      <point x="135" y="-92"/>
      <point x="135" y="-33" type="curve" smooth="yes"/>
      <point x="135" y="12"/>
      <point x="176" y="147"/>
      <point x="176" y="193" type="curve" smooth="yes"/>
      <point x="176" y="232"/>
      <point x="159" y="254"/>
      <point x="125" y="265" type="curve"/>
      <point x="179" y="280"/>
      <point x="204" y="312"/>
      <point x="218" y="379" type="curve" smooth="yes"/>
      <point x="247" y="523" type="line" smooth="yes"/>
      <point x="265" y="609"/>
      <point x="319" y="650"/>
      <point x="433" y="662" type="curve"/>
      <point x="433" y="697" type="line"/>
      <point x="297" y="682"/>
      <point x="236" y="635"/>
      <point x="214" y="529" type="curve" smooth="yes"/>
      <point x="184" y="389" type="line" smooth="yes"/>
      <point x="169" y="315"/>
      <point x="129" y="284"/>
      <point x="48" y="284" type="curve"/>
      <point x="44" y="248" type="line"/>
      <point x="110" y="248"/>
      <point x="138" y="229"/>
      <point x="138" y="181" type="curve" smooth="yes"/>
      <point x="138" y="128"/>
      <point x="99" y="24"/>
      <point x="99" y="-43" type="curve" smooth="yes"/>
      <point x="99" y="-117"/>
      <point x="148" y="-153"/>
      <point x="256" y="-166" type="curve"/>
    </contour>
  </outline>
</glyph>
<glyph name="cent" format="1">
  <advance width="524"/>
  <unicode hex="00A2"/>
  <outline>
    <contour>
      <point x="241" y="-74" type="line"/>
      <point x="379" y="589" type="line"/>
      <point x="343" y="589" type="line"/>
      <point x="205" y="-74" type="line"/>
    </contour>
    <component base="c"/>
  </outline>
</glyph>
<glyph name="yen" format="1">
  <advance width="632"/>
  <unicode hex="00A5"/>
  <outline>
    <contour>
      <point x="518" y="131" type="line"/>
      <point x="525" y="167" type="line"/>
      <point x="69" y="167" type="line"/>
      <point x="62" y="131" type="line"/>
    </contour>
    <contour>
      <point x="548" y="278" type="line"/>
      <point x="556" y="314" type="line"/>
      <point x="100" y="314" type="line"/>
      <point x="92" y="278" type="line"/>
    </contour>
    <component base="Y"/>
  </outline>
</glyph>
<glyph name="acute" format="1">
  <advance width="290"/>
  <unicode hex="00B4"/>
  <outline>
    <contour>
      <point x="177" y="576" type="line"/>
      <point x="322" y="709" type="line"/>
      <point x="282" y="718" type="line"/>
      <point x="128" y="576" type="line"/>
    </contour>
    <contour>
      <point x="247" y="704" type="move" name="top"/>
    </contour>
    <contour>
      <point x="208" y="517" type="move" name="_top"/>
    </contour>
  </outline>
</glyph>
<glyph name="cedilla" format="1">
  <advance width="298"/>
  <unicode hex="00B8"/>
  <outline>
    <contour>
      <point x="107" y="-192"/>
      <point x="160" y="-146"/>
      <point x="160" y="-97" type="curve" smooth="yes"/>
      <point x="160" y="-66"/>
      <point x="138" y="-45"/>
      <point x="103" y="-45" type="curve" smooth="yes"/>
      <point x="87" y="-45"/>
      <point x="62" y="-53"/>
      <point x="44" y="-66" type="curve"/>
      <point x="79" y="-67" type="line"/>
      <point x="128" y="11" type="line"/>
      <point x="88" y="11" type="line"/>
      <point x="40" y="-67" type="line"/>
      <point x="53" y="-85" type="line"/>
      <point x="64" y="-77"/>
      <point x="78" y="-73"/>
      <point x="91" y="-73" type="curve" smooth="yes"/>
      <point x="112" y="-73"/>
      <point x="124" y="-84"/>
      <point x="124" y="-103" type="curve" smooth="yes"/>
      <point x="124" y="-132"/>
      <point x="92" y="-156"/>
      <point x="54" y="-156" type="curve" smooth="yes"/>
      <point x="33" y="-156"/>
      <point x="11" y="-148"/>
      <point x="-5" y="-132" type="curve"/>
      <point x="-25" y="-163" type="line"/>
      <point x="-4" y="-181"/>
      <point x="24" y="-192"/>
      <point x="52" y="-192" type="curve" smooth="yes"/>
    </contour>
    <contour>
      <point x="96" y="0" type="move" name="_bottom"/>
    </contour>
  </outline>
</glyph>
<glyph name="AE" format="1">
  <advance width="955"/>
  <unicode hex="00C6"/>
  <outline>
    <contour>
      <point x="21" y="0" type="line"/>
      <point x="560" y="687" type="line"/>
      <point x="518" y="687" type="line"/>
      <point x="-22" y="0" type="line"/>
    </contour>
    <contour>
      <point x="454" y="175" type="line"/>
      <point x="461" y="211" type="line"/>
      <point x="152" y="211" type="line"/>
      <point x="145" y="175" type="line"/>
    </contour>
    <component base="E" xOffset="370"/>
  </outline>
</glyph>
<glyph name="germandbls" format="1">
  <advance width="535"/>
  <unicode hex="00DF"/>
  <outline>
    <contour>
      <point x="66" y="0" type="line"/>
      <point x="174" y="516" type="line" smooth="yes"/>
      <point x="191" y="600"/>
      <point x="277" y="671"/>
      <point x="361" y="671" type="curve" smooth="yes"/>
      <point x="432" y="671"/>
      <point x="481" y="619"/>
      <point x="481" y="552" type="curve" smooth="yes"/>
      <point x="481" y="459"/>
      <point x="399" y="379"/>
      <point x="298" y="379" type="curve" smooth="yes"/>
      <point x="231" y="379" type="line"/>
      <point x="224" y="343" type="line"/>
      <point x="299" y="343" type="line" smooth="yes"/>
      <point x="387" y="343"/>
      <point x="441" y="296"/>
      <point x="441" y="228" type="curve" smooth="yes"/>
      <point x="441" y="132"/>
      <point x="339" y="36"/>
      <point x="235" y="36" type="curve" smooth="yes"/>
      <point x="160" y="36" type="line"/>
      <point x="152" y="0" type="line"/>
      <point x="251" y="0" type="line" smooth="yes"/>
      <point x="364" y="0"/>
      <point x="476" y="113"/>
      <point x="476" y="224" type="curve" smooth="yes"/>
      <point x="476" y="285"/>
      <point x="444" y="340"/>
      <point x="394" y="364" type="curve"/>
      <point x="462" y="392"/>
      <point x="518" y="482"/>
      <point x="518" y="557" type="curve" smooth="yes"/>
      <point x="518" y="641"/>
      <point x="454" y="707"/>
      <point x="363" y="707" type="curve" smooth="yes"/>
      <point x="262" y="707"/>
      <point x="160" y="624"/>
      <point x="140" y="524" type="curve" smooth="yes"/>
      <point x="30" y="0" type="line"/>
    </contour>
  </outline>
</glyph>
<glyph name="divide" format="1">
  <advance width="594"/>
  <unicode hex="00F7"/>
  <outline>
    <contour>
      <point x="538" y="316" type="line"/>
      <point x="546" y="352" type="line"/>
      <point x="87" y="352" type="line"/>
      <point x="79" y="316" type="line"/>
    </contour>
    <contour>
      <point x="293" y="142"/>
      <point x="309" y="158"/>
      <point x="309" y="176" type="curve" smooth="yes"/>
      <point x="309" y="190"/>
      <point x="299" y="202"/>
      <point x="284" y="202" type="curve" smooth="yes"/>
      <point x="264" y="202"/>
      <point x="249" y="183"/>
      <point x="249" y="168" type="curve" smooth="yes"/>
      <point x="249" y="153"/>
      <point x="260" y="142"/>
      <point x="277" y="142" type="curve" smooth="yes"/>
    </contour>
    <contour>
      <point x="361" y="466"/>
      <point x="377" y="483"/>
      <point x="377" y="501" type="curve" smooth="yes"/>
      <point x="377" y="515"/>
      <point x="366" y="526"/>
      <point x="351" y="526" type="curve" smooth="yes"/>
      <point x="331" y="526"/>
      <point x="317" y="509"/>
      <point x="317" y="494" type="curve" smooth="yes"/>
      <point x="317" y="478"/>
      <point x="327" y="466"/>
      <point x="344" y="466" type="curve" smooth="yes"/>
    </contour>
  </outline>
</glyph>
<glyph name="oslash" format="1">
  <advance width="632"/>
  <unicode hex="00F8"/>
  <outline>
    <contour>
      <point x="66" y="0" type="line"/>
      <point x="615" y="517" type="line"/>
      <point x="565" y="517" type="line"/>
      <point x="17" y="0" type="line"/>
    </contour>
    <component base="o"/>
  </outline>
</glyph>
<glyph name="dcroat" format="1">
  <advance width="627"/>
  <unicode hex="0111"/>
  <outline>
    <contour>
      <point x="659" y="592" type="line"/>
      <point x="666" y="628" type="line"/>
      <point x="376" y="628" type="line"/>
      <point x="369" y="592" type="line"/>
    </contour>
    <component base="d"/>
  </outline>
</glyph>
<glyph name="jdotless" format="1">
  <advance width="225"/>
  <unicode hex="0237"/>
  <outline>
    <contour>
      <point x="-2" y="-178"/>
      <point x="51" y="-128"/>
      <point x="66" y="-57" type="curve" smooth="yes"/>
      <point x="185" y="517" type="line"/>
      <point x="149" y="517" type="line"/>
      <point x="30" y="-55" type="line" smooth="yes"/>
      <point x="20" y="-105"/>
      <point x="-20" y="-142"/>
      <point x="-64" y="-142" type="curve" smooth="yes"/>
      <point x="-87" y="-142"/>
      <point x="-115" y="-137"/>
      <point x="-132" y="-129" type="curve"/>
      <point x="-143" y="-161" type="line"/>
      <point x="-124" y="-170"/>
      <point x="-92" y="-178"/>
      <point x="-64" y="-178" type="curve" smooth="yes"/>
    </contour>
  </outline>
</glyph>
<glyph name="ring" format="1">
  <advance width="332"/>
  <unicode hex="02DA"/>
  <outline>
    <contour>
      <point x="298" y="589"/>
      <point x="361" y="648"/>
      <point x="361" y="713" type="curve" smooth="yes"/>
      <point x="361" y="759"/>
      <point x="327" y="795"/>
      <point x="278" y="795" type="curve" smooth="yes"/>
      <point x="216" y="795"/>
      <point x="151" y="737"/>
      <point x="151" y="672" type="curve" smooth="yes"/>
      <point x="151" y="625"/>
      <point x="186" y="589"/>
      <point x="235" y="589" type="curve" smooth="yes"/>
    </contour>
    <contour>
      <point x="209" y="623"/>
      <point x="186" y="648"/>
      <point x="186" y="680" type="curve" smooth="yes"/>
      <point x="186" y="722"/>
      <point x="230" y="761"/>
      <point x="271" y="761" type="curve" smooth="yes"/>
      <point x="303" y="761"/>
      <point x="326" y="737"/>
      <point x="326" y="706" type="curve" smooth="yes"/>
      <point x="326" y="663"/>
      <point x="284" y="623"/>
      <point x="242" y="623" type="curve" smooth="yes"/>
    </contour>
    <contour>
      <point x="259" y="704" type="move" name="top"/>
    </contour>
    <contour>
      <point x="220" y="517" type="move" name="_top"/>
    </contour>
  </outline>
</glyph>
<glyph name="ogonek" format="1">
  <advance width="310"/>
  <unicode hex="02DB"/>
  <outline>
    <contour>
      <point x="105" y="-173"/>
      <point x="138" y="-163"/>
      <point x="163" y="-145" type="curve"/>
      <point x="147" y="-113" type="line"/>
      <point x="131" y="-128"/>
      <point x="106" y="-137"/>
      <point x="81" y="-137" type="curve" smooth="yes"/>
      <point x="50" y="-137"/>
      <point x="28" y="-117"/>
      <point x="28" y="-88" type="curve" smooth="yes"/>
      <point x="28" y="-36"/>
      <point x="64" y="0"/>
      <point x="115" y="0" type="curve"/>
      <point x="92" y="21" type="line"/>
      <point x="36" y="14"/>
      <point x="-8" y="-37"/>
      <point x="-8" y="-94" type="curve" smooth="yes"/>
      <point x="-8" y="-143"/>
      <point x="24" y="-173"/>
      <point x="75" y="-173" type="curve" smooth="yes"/>
    </contour>
    <contour>
      <point x="113" y="0" type="move" name="_bottom"/>
    </contour>
  </outline>
</glyph>
<glyph name="hungarumlaut" format="1">
  <advance width="458"/>
  <unicode hex="02DD"/>
  <outline>
    <contour>
      <point x="178" y="576" type="line"/>
      <point x="323" y="709" type="line"/>
      <point x="283" y="718" type="line"/>
      <point x="129" y="576" type="line"/>
    </contour>
    <contour>
      <point x="344" y="576" type="line"/>
      <point x="489" y="709" type="line"/>
      <point x="449" y="718" type="line"/>
      <point x="295" y="576" type="line"/>
    </contour>
    <contour>
      <point x="322" y="704" type="move" name="top"/>
    </contour>
    <contour>
      <point x="283" y="517" type="move" name="_top"/>
    </contour>
  </outline>
</glyph>
<glyph name="commaaccentcomb" format="1">
  <advance width="242"/>
  <unicode hex="0326"/>
  <outline>
    <contour>
      <point x="54" y="-210"/>
      <point x="83" y="-162"/>
      <point x="83" y="-127" type="curve" smooth="yes"/>
      <point x="83" y="-108"/>
      <point x="72" y="-97"/>
      <point x="55" y="-97" type="curve" smooth="yes"/>
      <point x="36" y="-97"/>
      <point x="21" y="-113"/>
      <point x="21" y="-132" type="curve" smooth="yes"/>
      <point x="21" y="-147"/>
      <point x="31" y="-157"/>
      <point x="47" y="-156" type="curve"/>
      <point x="33" y="-184"/>
      <point x="6" y="-218"/>
      <point x="-26" y="-248" type="curve"/>
      <point x="-2" y="-269" type="line"/>
    </contour>
    <contour>
      <point x="78" y="0" type="move" name="_bottom"/>
    </contour>
    <contour>
      <point x="186" y="517" type="move" name="_top"/>
    </contour>
  </outline>
</glyph>
<glyph name="perthousand" format="1">
  <advance width="1151"/>
  <unicode hex="2030"/>
  <outline>
    <contour>
      <point x="121" y="0" type="line"/>
      <point x="734" y="687" type="line"/>
      <point x="685" y="687" type="line"/>
      <point x="72" y="0" type="line"/>
    </contour>
    <contour>
      <point x="626" y="-10"/>
      <point x="706" y="97"/>
      <point x="706" y="206" type="curve" smooth="yes"/>
      <point x="706" y="283"/>
      <point x="661" y="334"/>
      <point x="588" y="334" type="curve" smooth="yes"/>
      <point x="482" y="334"/>
      <point x="405" y="228"/>
      <point x="405" y="117" type="curve" smooth="yes"/>
      <point x="405" y="40"/>
      <point x="449" y="-10"/>
      <point x="521" y="-10" type="curve" smooth="yes"/>
    </contour>
    <contour>
      <point x="472" y="26"/>
      <point x="441" y="64"/>
      <point x="441" y="121" type="curve" smooth="yes"/>
      <point x="441" y="209"/>
      <point x="502" y="298"/>
      <point x="585" y="298" type="curve" smooth="yes"/>
      <point x="638" y="298"/>
      <point x="670" y="260"/>
      <point x="670" y="202" type="curve" smooth="yes"/>
      <point x="670" y="119"/>
      <point x="609" y="26"/>
      <point x="524" y="26" type="curve" smooth="yes"/>
    </contour>
    <contour>
      <point x="320" y="349"/>
      <point x="399" y="458"/>
      <point x="399" y="565" type="curve" smooth="yes"/>
      <point x="399" y="635"/>
      <point x="359" y="693"/>
      <point x="281" y="693" type="curve" smooth="yes"/>
      <point x="176" y="693"/>
      <point x="97" y="585"/>
      <point x="97" y="476" type="curve" smooth="yes"/>
      <point x="97" y="399"/>
      <point x="142" y="349"/>
      <point x="214" y="349" type="curve" smooth="yes"/>
    </contour>
    <contour>
      <point x="165" y="385"/>
      <point x="133" y="423"/>
      <point x="133" y="480" type="curve" smooth="yes"/>
      <point x="133" y="563"/>
      <point x="194" y="657"/>
      <point x="278" y="657" type="curve" smooth="yes"/>
      <point x="334" y="657"/>
      <point x="362" y="615"/>
      <point x="362" y="560" type="curve" smooth="yes"/>
      <point x="362" y="477"/>
      <point x="301" y="385"/>
      <point x="217" y="385" type="curve" smooth="yes"/>
    </contour>
    <contour>
      <point x="1007" y="-10"/>
      <point x="1087" y="97"/>
      <point x="1087" y="206" type="curve" smooth="yes"/>
      <point x="1087" y="283"/>
      <point x="1042" y="334"/>
      <point x="969" y="334" type="curve" smooth="yes"/>
      <point x="863" y="334"/>
      <point x="786" y="228"/>
      <point x="786" y="117" type="curve" smooth="yes"/>
      <point x="786" y="40"/>
      <point x="830" y="-10"/>
      <point x="902" y="-10" type="curve" smooth="yes"/>
    </contour>
    <contour>
      <point x="853" y="26"/>
      <point x="822" y="64"/>
      <point x="822" y="121" type="curve" smooth="yes"/>
      <point x="822" y="209"/>
      <point x="883" y="298"/>
      <point x="966" y="298" type="curve" smooth="yes"/>
      <point x="1019" y="298"/>
      <point x="1051" y="260"/>
      <point x="1051" y="202" type="curve" smooth="yes"/>
      <point x="1051" y="119"/>
      <point x="990" y="26"/>
      <point x="905" y="26" type="curve" smooth="yes"/>
    </contour>
  </outline>
</glyph>
<glyph name="guilsinglleft" format="1">
  <advance width="278"/>
  <unicode hex="2039"/>
  <outline>
    <contour>
      <point x="190" y="60" type="line"/>
      <point x="68" y="249" type="line"/>
      <point x="270" y="437" type="line"/>
      <point x="244" y="442" type="line"/>
      <point x="36" y="249" type="line"/>
      <point x="165" y="55" type="line"/>
    </contour>
  </outline>
</glyph>
<glyph name="guilsinglright" format="1">
  <advance width="278"/>
  <unicode hex="203A"/>
  <outline>
    <contour>
      <point x="238" y="249" type="line"/>
      <point x="110" y="442" type="line"/>
      <point x="84" y="437" type="line"/>
      <point x="206" y="249" type="line"/>
      <point x="4" y="60" type="line"/>
      <point x="31" y="55" type="line"/>
    </contour>
  </outline>
</glyph>
<glyph name="a.alt" format="1">
  <advance width="555"/>
  <outline>
    <contour>
      <point x="423" y="0" type="line"/>
      <point x="488" y="311"/>
      <point x="495" y="331"/>
      <point x="495" y="370" type="curve" smooth="yes"/>
      <point x="495" y="465"/>
      <point x="437" y="529"/>
      <point x="332" y="529" type="curve" smooth="yes"/>
      <point x="279" y="529"/>
      <point x="209" y="513"/>
      <point x="145" y="480" type="curve"/>
      <point x="156" y="447" type="line"/>
      <point x="210" y="476"/>
      <point x="271" y="493"/>
      <point x="325" y="493" type="curve" smooth="yes"/>
      <point x="423" y="493"/>
      <point x="458" y="434"/>
      <point x="458" y="365" type="curve" smooth="yes"/>
      <point x="458" y="329"/>
      <point x="454" y="320"/>
      <point x="387" y="0" type="curve"/>
    </contour>
    <contour>
      <point x="270" y="-12"/>
      <point x="391" y="35"/>
      <point x="430" y="122" type="curve"/>
      <point x="421" y="163" type="line"/>
      <point x="382" y="70"/>
      <point x="269" y="24"/>
      <point x="189" y="24" type="curve" smooth="yes"/>
      <point x="114" y="24"/>
      <point x="61" y="66"/>
      <point x="61" y="127" type="curve" smooth="yes"/>
      <point x="61" y="221"/>
      <point x="160" y="289"/>
      <point x="272" y="289" type="curve" smooth="yes"/>
      <point x="335" y="289"/>
      <point x="403" y="269"/>
      <point x="454" y="249" type="curve"/>
      <point x="458" y="283" type="line"/>
      <point x="402" y="307"/>
      <point x="332" y="325"/>
      <point x="269" y="325" type="curve" smooth="yes"/>
      <point x="139" y="325"/>
      <point x="25" y="241"/>
      <point x="25" y="121" type="curve" smooth="yes"/>
      <point x="25" y="41"/>
      <point x="88" y="-12"/>
      <point x="183" y="-12" type="curve" smooth="yes"/>
    </contour>
    <contour>
      <point x="343" y="517" type="move" name="top"/>
    </contour>
    <contour>
      <point x="423" y="0" type="move" name="bottom"/>
    </contour>
  </outline>
</glyph>
<glyph name="descender" format="1">
  <advance width="611"/>
  <outline>
    <contour>
      <point x="30" y="-172" type="line"/>
      <point x="173" y="517" type="line"/>
      <point x="137" y="517" type="line"/>
      <point x="-6" y="-172" type="line"/>
    </contour>
  </outline>
</glyph>
